<?xml version="1.0" standalone="no"?><!DOCTYPE svg PUBLIC "-//W3C//DTD SVG 1.1//EN" "http://www.w3.org/Graphics/SVG/1.1/DTD/svg11.dtd"><svg t="1562809738713" class="icon" viewBox="0 0 1024 1024" version="1.1" xmlns="http://www.w3.org/2000/svg" p-id="1736" xmlns:xlink="http://www.w3.org/1999/xlink" width="128" height="128"><defs><style type="text/css"></style></defs><path d="M926.635 294.91c13.81 11.028 16.065 31.163 5.037 44.974-11.028 13.81-31.163 16.065-44.973 5.037-106.183-84.792-236.88-131.588-374.646-131.588-137.81 0-268.546 46.826-374.746 131.668-13.808 11.031-33.944 8.78-44.975-5.028-11.031-13.808-8.78-33.943 5.028-44.974 117.423-93.809 262.206-145.666 414.693-145.666 152.438 0 297.177 51.824 414.582 145.577zM691.219 593.055c14.13 10.614 16.981 30.674 6.367 44.804-10.614 14.131-30.674 16.982-44.805 6.367-40.308-30.277-89.234-46.893-140.764-46.893-51.542 0-100.48 16.624-140.794 46.916-14.129 10.617-34.19 7.77-44.806-6.36-10.616-14.128-7.769-34.189 6.36-44.805 51.307-38.553 113.71-59.75 179.24-59.75 65.513 0 127.902 21.186 179.202 59.72z m128-149.355c14.13 10.615 16.981 30.674 6.367 44.805-10.614 14.13-30.674 16.981-44.805 6.367-76.952-57.802-170.404-89.539-268.75-89.539-98.371 0-191.846 31.753-268.808 89.583-14.129 10.617-34.19 7.77-44.806-6.36-10.616-14.129-7.769-34.189 6.36-44.805 87.956-66.09 194.896-102.418 307.254-102.418 112.33 0 219.244 36.308 307.188 102.367zM512 853.333c-35.346 0-64-28.653-64-64 0-35.346 28.654-64 64-64 35.346 0 64 28.654 64 64 0 35.347-28.654 64-64 64z" fill="#000000" p-id="1737"></path></svg>