<?xml version="1.0" standalone="no"?><!DOCTYPE svg PUBLIC "-//W3C//DTD SVG 1.1//EN" "http://www.w3.org/Graphics/SVG/1.1/DTD/svg11.dtd"><svg t="1562809912729" class="icon" viewBox="0 0 1024 1024" version="1.1" xmlns="http://www.w3.org/2000/svg" p-id="1647" xmlns:xlink="http://www.w3.org/1999/xlink" width="128" height="128"><defs><style type="text/css"></style></defs><path d="M866.70336 717.69088c-3.75808 0-7.46496 0.17408-11.1616 0.4096C828.928 631.87968 745.0112 568.86272 645.5296 568.86272c-35.75808 0-69.49888 8.192-99.30752 22.6304C507.20768 521.55392 429.80352 473.87648 340.61312 473.87648c-128.4096 0-232.51968 98.816-232.51968 220.7232 0 10.1376 0.78848 20.10112 2.18112 29.88032C46.37696 743.46496 0 800.09216 0 867.0208c0 82.45248 70.43072 149.2992 157.31712 149.2992 1.81248 0 3.61472-0.07168 5.4272-0.12288h698.53184c1.80224 0.0512 3.60448 0.12288 5.4272 0.12288 86.87616 0 157.29664-66.84672 157.29664-149.2992 0-82.47296-70.42048-149.31968-157.29664-149.31968" fill="#DAE6EE" p-id="1648"></path><path d="M939.68384 973.07648h-844.8V647.23968h77.1584c18.21696 0 33.03424-14.6432 33.03424-32.64512v-156.3648h51.58912c18.21696 0 33.03424-14.6432 33.03424-32.62464V283.82208h113.1008v141.78304c0 17.98144 14.80704 32.62464 33.024 32.62464h20.08064v338.39104c0 17.98144 14.81728 32.63488 33.04448 32.63488h194.43712c18.2272 0 33.04448-14.6432 33.04448-32.63488V555.88864h113.2032v132.87424c0 17.99168 14.81728 32.62464 33.024 32.62464h77.02528v251.6992z m5.36576-289.87392h-77.01504V550.32832c0-17.99168-14.82752-32.63488-33.04448-32.63488H711.0656c-18.2272 0-33.03424 14.6432-33.03424 32.63488v240.7424H494.30528V452.67968c0-18.00192-14.81728-32.64512-33.03424-32.64512h-20.0704V278.272c0-18.00192-14.81728-32.64512-33.03424-32.64512h-43.3664V113.74592c0-10.5472-8.59136-19.0976-19.2-19.0976a19.13856 19.13856 0 0 0-19.2 19.0976V245.62688h-42.07616c-18.21696 0-33.024 14.6432-33.024 32.64512v141.76256h-51.59936c-18.19648 0-33.024 14.6432-33.024 32.64512v156.3648H89.51808c-18.20672 0-33.03424 14.6432-33.03424 32.63488v336.9472c0 18.00192 14.82752 32.64512 33.03424 32.64512H945.0496c18.21696 0 33.03424-14.6432 33.03424-32.64512V715.8272c0-17.99168-14.81728-32.62464-33.03424-32.62464z" fill="#0E5DA1" p-id="1649"></path><path d="M776.52992 324.352c-28.23168 0-51.2 22.8352-51.2 50.92352 0 28.07808 22.96832 50.92352 51.2 50.92352 28.24192 0 51.2-22.8352 51.2-50.92352s-22.95808-50.92352-51.2-50.92352m0 140.04224c-49.408 0-89.6-39.97696-89.6-89.11872 0-49.152 40.192-89.11872 89.6-89.11872s89.6 39.97696 89.6 89.11872c0 49.14176-40.192 89.11872-89.6 89.11872" fill="#FFA950" p-id="1650"></path><path d="M263.68 536.576h38.4v-38.1952h-38.4zM327.99744 443.00288h38.4v-38.1952h-38.4zM327.99744 357.0688h38.4v-38.1952h-38.4zM755.2 633.6512h38.4v-38.1952h-38.4zM755.2 730.7264h38.4v-38.1952h-38.4zM358.4 536.576h38.4v-38.1952H358.4zM358.4 730.7264h38.4v-38.1952H358.4zM263.68 730.7264h38.4v-38.1952h-38.4zM358.4 827.8016h38.4v-38.1952H358.4zM263.68 827.8016h38.4v-38.1952h-38.4zM849.92 827.8016h38.4v-38.1952H849.92zM755.2 827.8016h38.4v-38.1952h-38.4zM167.04512 827.47392h38.4v-38.1952h-38.4zM358.4 924.86656h38.4v-38.1952H358.4zM263.68 924.86656h38.4v-38.1952h-38.4zM167.04512 924.86656h38.4v-38.1952h-38.4zM755.2 924.86656h38.4v-38.1952h-38.4zM849.92 924.86656h38.4v-38.1952H849.92zM615.68 924.86656h38.4v-38.1952h-38.4zM523.52 924.86656h38.4v-38.1952h-38.4zM167.04512 730.50112h38.4v-38.1952h-38.4zM263.68 633.6512h38.4v-38.1952h-38.4zM358.4 633.6512h38.4v-38.1952H358.4z" fill="#0E5DA1" p-id="1651"></path></svg>